<?xml version="1.0" encoding="UTF-8"?>
<svg width="208px" height="208px" viewBox="0 0 208 208" version="1.1" xmlns="http://www.w3.org/2000/svg" xmlns:xlink="http://www.w3.org/1999/xlink">
    <title>logo</title>
    <defs>
        <radialGradient cx="50%" cy="-50%" fx="50%" fy="-50%" r="99.999879%" id="radialGradient-1">
            <stop stop-color="#20C6B7" offset="0%"></stop>
            <stop stop-color="#4D9ABF" offset="100%"></stop>
        </radialGradient>
    </defs>
    <g id="Page-1" stroke="none" stroke-width="1" fill="none" fill-rule="evenodd">
        <g id="logo">
            <g id="netlify" fill="url(#radialGradient-1)" fill-rule="nonzero">
                <path d="M150.744471,72.1814231 L150.668442,72.1488749 C150.624997,72.1326008 150.581551,72.1163267 150.543537,72.0783538 C150.417249,71.9428552 150.361074,71.7564795 150.391478,71.5738567 L154.589384,45.9367252 L174.275554,65.6066869 L153.801937,74.3079054 C153.74504,74.3308243 153.684058,74.3418998 153.622725,74.340579 L153.541265,74.340579 C153.514112,74.3241795 153.486959,74.3024807 153.432652,74.2482337 C152.670725,73.4008167 151.759572,72.7002757 150.744471,72.1814231 Z M179.298922,70.6191095 L200.348189,91.6452461 C204.719877,96.0175542 206.908436,98.1982835 207.706744,100.726194 C207.826219,101.100498 207.923971,101.474802 208,101.859956 L157.695726,80.5788584 C157.668694,80.5677084 157.641539,80.5568583 157.614266,80.5463102 C157.413331,80.4649397 157.179813,80.3727198 157.179813,80.1665812 C157.179813,79.9604426 157.418762,79.862798 157.619697,79.7814276 L157.684865,79.7543041 L179.298922,70.6191095 L179.298922,70.6191095 Z M207.141955,108.608283 C206.055821,110.64797 203.937861,112.763603 200.35362,116.349329 L176.621603,140.049843 L145.927469,133.664971 L145.764549,133.632423 C145.493016,133.589025 145.20519,133.540203 145.20519,133.296092 C144.969548,130.739381 143.681181,128.395363 141.648103,126.824425 C141.523198,126.699656 141.555782,126.504367 141.593797,126.325352 C141.593797,126.298229 141.593797,126.271105 141.604658,126.249406 L147.377458,90.8478152 L147.39918,90.7284718 C147.431764,90.4572368 147.48064,90.1426043 147.72502,90.1426043 C150.224017,89.8320691 152.493599,88.532402 154.024595,86.5351789 C154.073471,86.4809319 154.106055,86.4212602 154.171223,86.388712 C154.345004,86.3073415 154.551369,86.388712 154.730581,86.4646578 L207.136524,108.608283 L207.141955,108.608283 Z M171.163782,145.501666 L132.139004,184.483559 L138.818725,143.472828 L138.829587,143.418581 C138.835017,143.364334 138.845879,143.310087 138.862171,143.261265 C138.916477,143.131072 139.057675,143.076825 139.193441,143.022578 L139.258609,142.995455 C140.721174,142.372128 142.014734,141.410926 143.032923,140.190885 C143.163259,140.038993 143.320749,139.892527 143.521684,139.865403 C143.573835,139.856899 143.627022,139.856899 143.679173,139.865403 L171.158351,145.507091 L171.163782,145.501666 Z M123.878959,192.734528 L119.480118,197.128535 L70.8484896,126.922069 C70.8309035,126.89639 70.8127975,126.871069 70.7941829,126.846123 C70.7181536,126.743054 70.6366936,126.639985 70.6529856,126.520641 C70.6584162,126.433846 70.7127229,126.3579 70.7724602,126.292804 L70.8267669,126.222283 C70.973395,126.005295 71.0983003,125.788307 71.234067,125.555045 L71.3426803,125.36518 L71.3589724,125.348906 C71.4350017,125.218713 71.5056004,125.093945 71.6359364,125.023424 C71.7499804,124.969177 71.9074698,124.990876 72.0323751,125.018 L125.910028,136.116935 C126.060677,136.140337 126.202789,136.201975 126.322759,136.295951 C126.393358,136.366472 126.40965,136.442417 126.425942,136.529213 C127.18776,139.408428 129.253057,141.76646 132.008668,142.903235 C132.160727,142.979181 132.095559,143.147346 132.02496,143.326362 C131.989737,143.404819 131.962448,143.486596 131.9435,143.570473 C131.264667,147.693245 125.442991,183.159932 123.878959,192.734528 Z M114.690269,201.907695 C111.448161,205.113693 109.536566,206.811624 107.37516,207.495136 C105.244036,208.168288 102.956899,208.168288 100.825775,207.495136 C98.2950837,206.69228 96.1065246,204.511551 91.7348372,200.139243 L42.8968434,151.354917 L55.6534816,131.592736 C55.713219,131.495091 55.7729563,131.408296 55.8707083,131.337775 C56.006475,131.24013 56.2019791,131.283528 56.3648991,131.337775 C59.2929003,132.220164 62.4366219,132.061042 65.2603326,130.887525 C65.4069607,130.833527 65.5535887,130.795305 65.6676327,130.898374 C65.7246615,130.950372 65.7756671,131.0086 65.8196914,131.071965 L114.690269,201.91312 L114.690269,201.907695 Z M38.1884546,146.651703 L26.9849873,135.460547 L49.1095272,126.032418 C49.1660793,126.007786 49.2270458,125.994868 49.2887392,125.994446 C49.4733819,125.994446 49.5819952,126.178885 49.6797473,126.347051 C49.9020896,126.688744 50.137595,127.021709 50.3857341,127.345196 L50.4563327,127.431991 C50.5215007,127.524211 50.4780554,127.616431 50.4128874,127.703226 L38.1938853,146.651703 L38.1884546,146.651703 Z M22.0267878,130.507796 L7.85274536,116.349329 C5.44152894,113.940762 3.69285397,112.194009 2.47638443,110.691367 L45.5741626,119.620423 C45.6283009,119.630446 45.6826165,119.639488 45.7370826,119.647547 C46.0031853,119.690944 46.2964413,119.739767 46.2964413,119.989303 C46.2964413,120.260538 45.976032,120.385306 45.7044986,120.488375 L45.5795932,120.542622 L22.0267878,130.507796 Z M0,103.41142 C0.0491158066,102.499362 0.213334854,101.59715 0.488760085,100.726194 C1.29249889,98.1982835 3.47562727,96.0175542 7.85274536,91.6452461 L25.9911752,73.5267486 C34.3426358,85.6340262 42.7167398,97.7257033 51.1134435,109.801716 C51.2600715,109.997006 51.4229916,110.213994 51.2546409,110.376735 C50.4617634,111.250111 49.6688859,112.204859 49.1095272,113.240976 C49.0488451,113.374158 48.9554399,113.489853 48.8379938,113.577308 C48.7673951,113.620705 48.6913658,113.604431 48.6099057,113.588157 L48.5990444,113.588157 L0,103.405995 L0,103.41142 Z M30.846192,68.677067 L55.2353202,44.31474 C57.527062,45.3183095 65.8685674,48.8389396 73.3303047,51.9852656 C78.978199,54.3721335 84.1264719,56.5420134 85.7448108,57.2472244 C85.9077309,57.3123208 86.0543589,57.3774172 86.1249576,57.5401582 C86.1684029,57.6378028 86.1466802,57.7625709 86.1249576,57.8656402 C85.3407194,61.4379145 86.4081251,65.1646323 88.9651967,67.7819915 C89.1281168,67.9447325 88.9651967,68.1779946 88.8239994,68.3787085 L88.74797,68.4926272 L63.9841257,106.807282 C63.9189577,106.915776 63.8592204,107.007996 63.750607,107.078517 C63.620271,107.159888 63.4356283,107.121915 63.2835696,107.083942 C62.3204132,106.831877 61.3302742,106.697089 60.3347171,106.682514 C59.4440876,106.682514 58.4774288,106.845255 57.4999086,107.02427 L57.494478,107.02427 C57.3858646,107.040544 57.2881126,107.062243 57.2012219,106.997147 C57.1052532,106.918804 57.0227109,106.825359 56.9568419,106.720487 L30.846192,68.677067 L30.846192,68.677067 Z M60.1609357,39.3945372 L91.7348372,7.85533234 C96.1065246,3.48844896 98.2950837,1.30229493 100.825775,0.504864049 C102.956899,-0.168288016 105.244036,-0.168288016 107.37516,0.504864049 C109.905851,1.30229493 112.09441,3.48844896 116.466097,7.85533234 L123.308739,14.6904541 L100.852928,49.4302319 C100.797376,49.531365 100.721585,49.6199981 100.630271,49.6906175 C100.494504,49.7828374 100.304431,49.7448645 100.141511,49.6906175 C96.5471975,48.6010454 92.6461926,49.3519755 89.7146289,51.6977565 C89.5680008,51.8496481 89.3507741,51.7628529 89.1661314,51.6814824 C86.2335709,50.4066779 63.424767,40.7778357 60.1609357,39.3945372 L60.1609357,39.3945372 Z M128.076865,19.4533406 L148.811154,40.1648446 L143.81494,71.0747843 L143.81494,71.1561548 C143.810479,71.2266 143.795846,71.296031 143.771494,71.3622934 C143.717188,71.4707874 143.608574,71.4924862 143.499961,71.5250344 C142.431744,71.8482462 141.425665,72.3488988 140.523955,73.0059774 C140.485189,73.0335737 140.448853,73.0644257 140.415342,73.0981973 C140.355604,73.1632937 140.295867,73.2229654 140.198115,73.2341098 C140.118555,73.2362702 140.039268,73.2233772 139.964596,73.1958419 L108.368972,59.7859839 L108.309235,59.7588604 C108.1083,59.6774899 107.869351,59.5798453 107.869351,59.3737067 C107.683639,57.6149336 107.108582,55.9194509 106.185844,54.4101064 C106.033785,54.1605702 105.865434,53.9001846 105.99577,53.6452237 L128.076865,19.4533406 L128.076865,19.4533406 Z M106.72348,66.1383074 L136.342341,78.6693641 C136.505261,78.7453099 136.684473,78.815831 136.755072,78.9839967 C136.783335,79.0851327 136.783335,79.1920685 136.755072,79.2932046 C136.668181,79.7271806 136.592152,80.2208282 136.592152,80.7199006 L136.592152,81.5498797 C136.592152,81.7560183 136.380356,81.8428135 136.184852,81.924184 L136.125114,81.9458828 C131.433017,83.947597 70.2511162,110.007855 70.1587948,110.007855 C70.0664735,110.007855 69.9687214,110.007855 69.8764001,109.915635 C69.7134801,109.752894 69.8764001,109.525057 70.0230281,109.318918 C70.0489511,109.283162 70.0742975,109.246993 70.0990575,109.210424 L94.4393097,71.5630073 L94.482755,71.4979109 C94.6239524,71.2700735 94.7868724,71.0151126 95.0475445,71.0151126 L95.2919245,71.0530855 C95.8458526,71.1290313 96.3346127,71.1995524 96.8288034,71.1995524 C100.521657,71.1995524 103.942978,69.4039768 106.006632,66.3335966 C106.055799,66.2516058 106.118187,66.1782898 106.191274,66.1166086 C106.337902,66.0081147 106.555129,66.0623616 106.72348,66.1383074 L106.72348,66.1383074 Z M72.8035299,115.964176 L139.492128,87.5550224 C139.492128,87.5550224 139.58988,87.5550224 139.682202,87.6472423 C140.046056,88.0106972 140.355604,88.2548087 140.654291,88.4826461 L140.800919,88.574866 C140.936686,88.6508118 141.072452,88.737607 141.083314,88.8786492 C141.083314,88.9328962 141.083314,88.9654444 141.072452,89.0142667 L135.35939,124.068677 L135.337667,124.209719 C135.299653,124.480954 135.261638,124.790162 135.006397,124.790162 C131.914142,124.998652 129.124069,126.717949 127.55009,129.384883 L127.522937,129.428281 C127.446907,129.553049 127.376309,129.672392 127.251403,129.737488 C127.137359,129.791735 126.990731,129.770037 126.871257,129.742913 L73.6887288,118.785019 C73.6344221,118.77417 72.8632673,115.9696 72.8035299,115.964176 Z" id="Shape"></path>
            </g>
            <g id="webhook" transform="translate(108.000000, 108.000000)">
                <circle id="Oval" fill="#E12E3A" cx="50" cy="50" r="50"></circle>
                <g id="Group" transform="translate(26.000000, 23.992148)" fill="#FFFFFF">
                    <path d="M37,35.6078515 L13.6,35.6078515 L13.6,38.3078515 C13.1,41.0078515 10.9,43.1078515 8.2,43.1078515 C5.2,43.1078515 2.7,40.5078515 2.7,37.2078515 C2.7,35.2078515 3.6,33.4078515 5.1,32.4078515 L3.5,30.0078515 C1.4,31.6078515 0,34.2078515 0,37.2078515 C0,42.1078515 3.7,46.0078515 8.2,46.0078515 C12.3,46.0078515 15.7,42.8078515 16.3,38.7078515 L36.8,38.7078515 C37.3,39.6078515 38.2,40.2078515 39.2,40.2078515 C40.7,40.2078515 41.9,38.9078515 41.9,37.3078515 C41.9,35.7078515 40.7,34.4078515 39.2,34.4078515 C38.3,34.3078515 37.5,34.8078515 37,35.6078515 Z" id="Path"></path>
                    <path d="M6.2,35.0078515 C6.2,34.9078515 6.3,34.8078515 6.4,34.6078515 C6.9,33.7078515 7.8,33.2078515 8.7,33.2078515 L18.8,14.9078515 C15.8,12.3078515 15,7.80785153 17,4.20785153 C19.2,0.207851526 24.2,-1.19214847 28,1.10785153 C30.4,2.50785153 31.8,5.00785153 32,7.70785153 L29.3,7.90785153 C29.2,6.10785153 28.2,4.50785153 26.6,3.50785153 C24,1.90785153 20.7,2.90785153 19.3,5.60785153 C17.8,8.20785153 18.7,11.6078515 21.1,13.2078515 L22.6,14.1078515 L11.2,34.8078515 C11.5,35.5078515 11.6,36.4078515 11.3,37.1078515 C10.8,38.2078515 9.8,39.0078515 8.7,39.0078515 C7.2,39.0078515 6,37.7078515 6,36.2078515 C6,35.8078515 6.1,35.4078515 6.2,35.0078515 Z" id="Path"></path>
                    <path d="M24.5,11.6078515 L35.8,32.4078515 L37.2,31.6078515 L37.2,31.6078515 C37.2,31.6078515 37.2,31.6078515 37.2,31.6078515 C39.8,30.0078515 43.1,30.9078515 44.5,33.6078515 C46,36.3078515 45.1,39.8078515 42.5,41.3078515 C40.9,42.3078515 39.1,42.3078515 37.5,41.5078515 L36.4,44.1078515 C38.7,45.2078515 41.5,45.2078515 43.9,43.7078515 C47.8,41.3078515 49.1,36.2078515 46.9,32.1078515 C44.9,28.4078515 40.7,27.0078515 37.1,28.5078515 L27,10.2078515 C27.4,9.40785153 27.5,8.30785153 27,7.40785153 C26.3,6.10785153 24.6,5.60785153 23.3,6.40785153 C22,7.20785153 21.6,8.90785153 22.3,10.3078515 C22.8,11.1078515 23.7,11.6078515 24.5,11.6078515 Z" id="Path"></path>
                </g>
            </g>
        </g>
    </g>
</svg>